<svg width="296" height="126" viewBox="0 0 296 126" fill="none" xmlns="http://www.w3.org/2000/svg">
<g clip-path="url(#clip0_47_5)">
<path d="M6 121.887L25.239 6H75.4868C84.3141 6 91.5382 7.1883 97.159 9.5649C102.818 11.9415 106.816 15.2989 109.155 19.6371C111.532 23.9753 112.23 29.0868 111.249 34.9717C110.494 39.1967 108.872 43.0634 106.382 46.5717C103.93 50.0423 100.818 52.9847 97.046 55.399C93.311 57.7756 89.1428 59.4166 84.5405 60.322L84.3141 61.4537C89.2937 61.6046 93.632 62.8494 97.329 65.1883C101.026 67.4894 103.742 70.6959 105.477 74.8078C107.212 78.8819 107.627 83.6351 106.722 89.067C105.666 95.405 103.082 101.045 98.97 105.986C94.858 110.928 89.52 114.814 82.9561 117.643C76.3922 120.472 68.9229 121.887 60.5483 121.887H6ZM41.7619 96.763H56.4741C61.68 96.763 65.773 95.763 68.7532 93.764C71.7711 91.765 73.5629 88.841 74.1288 84.9932C74.5815 82.2771 74.3551 79.9759 73.4498 78.0897C72.5444 76.2036 71.0166 74.7701 68.8663 73.7893C66.7161 72.8084 64.0189 72.318 60.7746 72.318H45.6098L41.7619 96.763ZM49.0049 52.8527H61.9063C64.6224 52.8527 67.1122 52.4189 69.3756 51.5512C71.639 50.6836 73.5063 49.4198 74.9776 47.76C76.4488 46.1002 77.373 44.1008 77.7502 41.7619C78.3161 38.1405 77.4484 35.3867 75.1473 33.5005C72.8839 31.6143 69.8283 30.6712 65.9805 30.6712H52.6263L49.0049 52.8527Z" fill="#0C45D5"/>
<path d="M115.945 31.4635C115.945 21.7874 113.455 12.9601 101.629 6.11328H206.821L198.051 31.4635H163.194L148.255 122H117.247L132.185 31.4635H115.945Z" fill="#0C45D5"/>
<path d="M206.425 121.887H172.474L210.726 6H253.731L291.983 121.887H258.031L232.681 37.9141H231.776L206.425 121.887ZM200.088 76.1659H263.916V99.705H200.088V76.1659Z" fill="#0C45D5"/>
</g>
<defs>
<clipPath id="clip0_47_5">
<rect width="296" height="126" fill="white"/>
</clipPath>
</defs>
</svg>
